<?xml version="1.0" standalone="no"?>
<!DOCTYPE svg PUBLIC "-//W3C//DTD SVG 20010904//EN"
 "http://www.w3.org/TR/2001/REC-SVG-20010904/DTD/svg10.dtd">
<svg version="1.0" xmlns="http://www.w3.org/2000/svg"
 width="277.000000pt" height="215.000000pt" viewBox="0 0 277.000000 215.000000"
 preserveAspectRatio="xMidYMid meet">

<g transform="translate(0.000000,215.000000) scale(0.100000,-0.100000)"
fill="#000000" stroke="none">
<path d="M1451 2114 c-120 -60 -157 -211 -78 -317 126 -166 398 -81 397 125
-1 166 -168 267 -319 192z"/>
<path d="M1463 1610 c-287 -41 -661 -232 -888 -453 -87 -85 -89 -88 -70 -103
40 -31 169 0 388 92 132 56 230 88 248 82 5 -2 -21 -23 -58 -47 -92 -61 -256
-227 -326 -332 -68 -103 -129 -231 -151 -315 -38 -146 -2 -231 65 -156 14 15
64 85 111 157 172 259 320 396 541 500 111 52 183 69 268 63 113 -7 187 -62
253 -187 58 -112 87 -227 93 -373 5 -118 7 -128 25 -128 46 0 98 88 123 208
19 87 19 260 0 359 -31 164 -128 295 -275 372 l-74 39 34 6 c19 3 131 10 249
15 233 10 255 16 225 59 -33 47 -164 98 -327 126 -108 19 -369 28 -454 16z"/>
<path d="M2565 459 c-295 -68 -739 -139 -1125 -181 -166 -18 -267 -22 -535
-22 -298 -1 -345 1 -480 22 -204 32 -383 40 -410 18 -20 -16 -19 -17 24 -56
48 -44 129 -74 348 -129 305 -77 552 -106 893 -105 287 1 434 16 665 71 219
51 520 167 679 261 80 48 150 114 143 135 -6 21 -68 17 -202 -14z"/>
</g>
</svg>
